<mxfile host="localhost" modified="2021-05-13T14:13:27.034Z" agent="5.0 (Windows NT 10.0; Win64; x64) AppleWebKit/537.36 (KHTML, like Gecko) Chrome/90.0.4430.212 Safari/537.36" etag="wjza11dTS4zL6TAPUyhJ" version="@DRAWIO-VERSION@" type="device">
    <diagram name="Models" id="models">
        <mxGraphModel dx="1200" dy="600" grid="1" gridSize="10" guides="1" tooltips="1" connect="1" arrows="1" fold="1" page="1" pageScale="1" pageWidth="1100" pageHeight="850" background="none" math="0" shadow="0">
            <root>
                <mxCell id="0" />
                <mxCell id="1" parent="0" />
                <!-- User Model -->
                <mxCell id="user1" value="User" style="swimlane;html=1;fontStyle=1;align=center;verticalAlign=top;childLayout=stackLayout;horizontal=1;startSize=26;horizontalStack=0;resizeParent=1;resizeLast=0;collapsible=1;marginBottom=0;swimlaneFillColor=#e3f2fd;rounded=1;shadow=0;strokeWidth=2;fontFamily=Verdana;fontSize=14" parent="1" vertex="1">
                    <mxGeometry x="60" y="100" width="260" height="340" as="geometry" />
                </mxCell>
                <mxCell id="user_field1" value="_id: ObjectId" style="text;html=1;strokeColor=none;fillColor=none;align=left;verticalAlign=top;spacingLeft=8;whiteSpace=wrap;overflow=hidden;" parent="user1" vertex="1">
                    <mxGeometry y="26" width="260" height="26" as="geometry" />
                </mxCell>
                <mxCell id="user_field2" value="name: string" style="text;html=1;strokeColor=none;fillColor=none;align=left;verticalAlign=top;spacingLeft=8;whiteSpace=wrap;overflow=hidden;" parent="user1" vertex="1">
                    <mxGeometry y="52" width="260" height="26" as="geometry" />
                </mxCell>
                <mxCell id="user_field3" value="email: string" style="text;html=1;strokeColor=none;fillColor=none;align=left;verticalAlign=top;spacingLeft=8;whiteSpace=wrap;overflow=hidden;" parent="user1" vertex="1">
                    <mxGeometry y="78" width="260" height="26" as="geometry" />
                </mxCell>
                <mxCell id="user_field4" value="password: string" style="text;html=1;strokeColor=none;fillColor=none;align=left;verticalAlign=top;spacingLeft=8;whiteSpace=wrap;overflow=hidden;" parent="user1" vertex="1">
                    <mxGeometry y="104" width="260" height="26" as="geometry" />
                </mxCell>
                <mxCell id="user_field5" value="passwordChangedAt: Date" style="text;html=1;strokeColor=none;fillColor=none;align=left;verticalAlign=top;spacingLeft=8;whiteSpace=wrap;overflow=hidden;" parent="user1" vertex="1">
                    <mxGeometry y="130" width="260" height="26" as="geometry" />
                </mxCell>
                <mxCell id="user_field6" value="role: string (customer|staff|admin)" style="text;html=1;strokeColor=none;fillColor=none;align=left;verticalAlign=top;spacingLeft=8;whiteSpace=wrap;overflow=hidden;" parent="user1" vertex="1">
                    <mxGeometry y="156" width="260" height="26" as="geometry" />
                </mxCell>
                <mxCell id="user_field7" value="phone: string" style="text;html=1;strokeColor=none;fillColor=none;align=left;verticalAlign=top;spacingLeft=8;whiteSpace=wrap;overflow=hidden;" parent="user1" vertex="1">
                    <mxGeometry y="182" width="260" height="26" as="geometry" />
                </mxCell>
                <mxCell id="user_field8" value="addresses: [{ street, city, isDefault }]" style="text;html=1;strokeColor=none;fillColor=none;align=left;verticalAlign=top;spacingLeft=8;whiteSpace=wrap;overflow=hidden;" parent="user1" vertex="1">
                    <mxGeometry y="208" width="260" height="26" as="geometry" />
                </mxCell>
                <mxCell id="user_field9" value="avatar: string" style="text;html=1;strokeColor=none;fillColor=none;align=left;verticalAlign=top;spacingLeft=8;whiteSpace=wrap;overflow=hidden;" parent="user1" vertex="1">
                    <mxGeometry y="234" width="260" height="26" as="geometry" />
                </mxCell>
                <mxCell id="user_field10" value="active: boolean" style="text;html=1;strokeColor=none;fillColor=none;align=left;verticalAlign=top;spacingLeft=8;whiteSpace=wrap;overflow=hidden;" parent="user1" vertex="1">
                    <mxGeometry y="260" width="260" height="26" as="geometry" />
                </mxCell>
                <mxCell id="user_field11" value="createdAt, updatedAt: Date" style="text;html=1;strokeColor=none;fillColor=none;align=left;verticalAlign=top;spacingLeft=8;whiteSpace=wrap;overflow=hidden;" parent="user1" vertex="1">
                    <mxGeometry y="286" width="260" height="26" as="geometry" />
                </mxCell>
                <!-- CategoryProduct Model -->
                <mxCell id="catprod1" value="CategoryProduct" style="swimlane;html=1;fontStyle=1;align=center;verticalAlign=top;childLayout=stackLayout;horizontal=1;startSize=26;horizontalStack=0;resizeParent=1;resizeLast=0;collapsible=1;marginBottom=0;swimlaneFillColor=#ffe0b2;rounded=1;shadow=0;strokeWidth=2;fontFamily=Verdana;fontSize=14" parent="1" vertex="1">
                    <mxGeometry x="400" y="20" width="220" height="140" as="geometry" />
                </mxCell>
                <mxCell id="catprod_field1" value="_id: ObjectId" style="text;html=1;strokeColor=none;fillColor=none;align=left;verticalAlign=top;spacingLeft=8;whiteSpace=wrap;overflow=hidden;" parent="catprod1" vertex="1">
                    <mxGeometry y="26" width="220" height="26" as="geometry" />
                </mxCell>
                <mxCell id="catprod_field2" value="name: string" style="text;html=1;strokeColor=none;fillColor=none;align=left;verticalAlign=top;spacingLeft=8;whiteSpace=wrap;overflow=hidden;" parent="catprod1" vertex="1">
                    <mxGeometry y="52" width="220" height="26" as="geometry" />
                </mxCell>
                <mxCell id="catprod_field3" value="description: string" style="text;html=1;strokeColor=none;fillColor=none;align=left;verticalAlign=top;spacingLeft=8;whiteSpace=wrap;overflow=hidden;" parent="catprod1" vertex="1">
                    <mxGeometry y="78" width="220" height="26" as="geometry" />
                </mxCell>
                <!-- Product Model -->
                <mxCell id="prod1" value="Product" style="swimlane;html=1;fontStyle=1;align=center;verticalAlign=top;childLayout=stackLayout;horizontal=1;startSize=26;horizontalStack=0;resizeParent=1;resizeLast=0;collapsible=1;marginBottom=0;swimlaneFillColor=#fff3e0;rounded=1;shadow=0;strokeWidth=2;fontFamily=Verdana;fontSize=14" parent="1" vertex="1">
                    <mxGeometry x="400" y="180" width="300" height="420" as="geometry" />
                </mxCell>
                <mxCell id="prod_field1" value="_id: ObjectId" style="text;html=1;strokeColor=none;fillColor=none;align=left;verticalAlign=top;spacingLeft=8;whiteSpace=wrap;overflow=hidden;" parent="prod1" vertex="1">
                    <mxGeometry y="26" width="300" height="26" as="geometry" />
                </mxCell>
                <mxCell id="prod_field2" value="name: string" style="text;html=1;strokeColor=none;fillColor=none;align=left;verticalAlign=top;spacingLeft=8;whiteSpace=wrap;overflow=hidden;" parent="prod1" vertex="1">
                    <mxGeometry y="52" width="300" height="26" as="geometry" />
                </mxCell>
                <mxCell id="prod_field3" value="slug: string" style="text;html=1;strokeColor=none;fillColor=none;align=left;verticalAlign=top;spacingLeft=8;whiteSpace=wrap;overflow=hidden;" parent="prod1" vertex="1">
                    <mxGeometry y="78" width="300" height="26" as="geometry" />
                </mxCell>
                <mxCell id="prod_field4" value="description: string" style="text;html=1;strokeColor=none;fillColor=none;align=left;verticalAlign=top;spacingLeft=8;whiteSpace=wrap;overflow=hidden;" parent="prod1" vertex="1">
                    <mxGeometry y="104" width="300" height="26" as="geometry" />
                </mxCell>
                <mxCell id="prod_field5" value="price: number" style="text;html=1;strokeColor=none;fillColor=none;align=left;verticalAlign=top;spacingLeft=8;whiteSpace=wrap;overflow=hidden;" parent="prod1" vertex="1">
                    <mxGeometry y="130" width="300" height="26" as="geometry" />
                </mxCell>
                <mxCell id="prod_field6" value="discountPrice: number" style="text;html=1;strokeColor=none;fillColor=none;align=left;verticalAlign=top;spacingLeft=8;whiteSpace=wrap;overflow=hidden;" parent="prod1" vertex="1">
                    <mxGeometry y="156" width="300" height="26" as="geometry" />
                </mxCell>
                <mxCell id="prod_field7" value="images: [string]" style="text;html=1;strokeColor=none;fillColor=none;align=left;verticalAlign=top;spacingLeft=8;whiteSpace=wrap;overflow=hidden;" parent="prod1" vertex="1">
                    <mxGeometry y="182" width="300" height="26" as="geometry" />
                </mxCell>
                <mxCell id="prod_field8" value="stock: number" style="text;html=1;strokeColor=none;fillColor=none;align=left;verticalAlign=top;spacingLeft=8;whiteSpace=wrap;overflow=hidden;" parent="prod1" vertex="1">
                    <mxGeometry y="208" width="300" height="26" as="geometry" />
                </mxCell>
                <mxCell id="prod_field9" value="sku: string" style="text;html=1;strokeColor=none;fillColor=none;align=left;verticalAlign=top;spacingLeft=8;whiteSpace=wrap;overflow=hidden;" parent="prod1" vertex="1">
                    <mxGeometry y="234" width="300" height="26" as="geometry" />
                </mxCell>
                <mxCell id="prod_field10" value="status: string (draft|published|archived)" style="text;html=1;strokeColor=none;fillColor=none;align=left;verticalAlign=top;spacingLeft=8;whiteSpace=wrap;overflow=hidden;" parent="prod1" vertex="1">
                    <mxGeometry y="260" width="300" height="26" as="geometry" />
                </mxCell>
                <mxCell id="prod_field11" value="featured: boolean" style="text;html=1;strokeColor=none;fillColor=none;align=left;verticalAlign=top;spacingLeft=8;whiteSpace=wrap;overflow=hidden;" parent="prod1" vertex="1">
                    <mxGeometry y="286" width="300" height="26" as="geometry" />
                </mxCell>
                <mxCell id="prod_field12" value="ratings: number (0-5)" style="text;html=1;strokeColor=none;fillColor=none;align=left;verticalAlign=top;spacingLeft=8;whiteSpace=wrap;overflow=hidden;" parent="prod1" vertex="1">
                    <mxGeometry y="312" width="300" height="26" as="geometry" />
                </mxCell>
                <mxCell id="prod_field13" value="categoryProductId: ObjectId" style="text;html=1;strokeColor=none;fillColor=none;align=left;verticalAlign=top;spacingLeft=8;whiteSpace=wrap;overflow=hidden;" parent="prod1" vertex="1">
                    <mxGeometry y="338" width="300" height="26" as="geometry" />
                </mxCell>
                <mxCell id="prod_field14" value="createdAt, updatedAt: Date" style="text;html=1;strokeColor=none;fillColor=none;align=left;verticalAlign=top;spacingLeft=8;whiteSpace=wrap;overflow=hidden;" parent="prod1" vertex="1">
                    <mxGeometry y="364" width="300" height="26" as="geometry" />
                </mxCell>
                <!-- CategoryPost Model -->
                <mxCell id="catpost1" value="CategoryPost" style="swimlane;html=1;fontStyle=1;align=center;verticalAlign=top;childLayout=stackLayout;horizontal=1;startSize=26;horizontalStack=0;resizeParent=1;resizeLast=0;collapsible=1;marginBottom=0;swimlaneFillColor=#c8e6c9;rounded=1;shadow=0;strokeWidth=2;fontFamily=Verdana;fontSize=14" parent="1" vertex="1">
                    <mxGeometry x="800" y="60" width="220" height="140" as="geometry" />
                </mxCell>
                <mxCell id="catpost_field1" value="_id: ObjectId" style="text;html=1;strokeColor=none;fillColor=none;align=left;verticalAlign=top;spacingLeft=8;whiteSpace=wrap;overflow=hidden;" parent="catpost1" vertex="1">
                    <mxGeometry y="26" width="220" height="26" as="geometry" />
                </mxCell>
                <mxCell id="catpost_field2" value="name: string" style="text;html=1;strokeColor=none;fillColor=none;align=left;verticalAlign=top;spacingLeft=8;whiteSpace=wrap;overflow=hidden;" parent="catpost1" vertex="1">
                    <mxGeometry y="52" width="220" height="26" as="geometry" />
                </mxCell>
                <mxCell id="catpost_field3" value="description: string" style="text;html=1;strokeColor=none;fillColor=none;align=left;verticalAlign=top;spacingLeft=8;whiteSpace=wrap;overflow=hidden;" parent="catpost1" vertex="1">
                    <mxGeometry y="78" width="220" height="26" as="geometry" />
                </mxCell>
                <!-- Post Model -->
                <mxCell id="post1" value="Post" style="swimlane;html=1;fontStyle=1;align=center;verticalAlign=top;childLayout=stackLayout;horizontal=1;startSize=26;horizontalStack=0;resizeParent=1;resizeLast=0;collapsible=1;marginBottom=0;swimlaneFillColor=#e8f5e9;rounded=1;shadow=0;strokeWidth=2;fontFamily=Verdana;fontSize=14" parent="1" vertex="1">
                    <mxGeometry x="800" y="220" width="220" height="180" as="geometry" />
                </mxCell>
                <mxCell id="post_field1" value="_id: ObjectId" style="text;html=1;strokeColor=none;fillColor=none;align=left;verticalAlign=top;spacingLeft=8;whiteSpace=wrap;overflow=hidden;" parent="post1" vertex="1">
                    <mxGeometry y="26" width="220" height="26" as="geometry" />
                </mxCell>
                <mxCell id="post_field2" value="title: string" style="text;html=1;strokeColor=none;fillColor=none;align=left;verticalAlign=top;spacingLeft=8;whiteSpace=wrap;overflow=hidden;" parent="post1" vertex="1">
                    <mxGeometry y="52" width="220" height="26" as="geometry" />
                </mxCell>
                <mxCell id="post_field3" value="content: string" style="text;html=1;strokeColor=none;fillColor=none;align=left;verticalAlign=top;spacingLeft=8;whiteSpace=wrap;overflow=hidden;" parent="post1" vertex="1">
                    <mxGeometry y="78" width="220" height="26" as="geometry" />
                </mxCell>
                <mxCell id="post_field4" value="categoryPostId: ObjectId" style="text;html=1;strokeColor=none;fillColor=none;align=left;verticalAlign=top;spacingLeft=8;whiteSpace=wrap;overflow=hidden;" parent="post1" vertex="1">
                    <mxGeometry y="104" width="220" height="26" as="geometry" />
                </mxCell>
                <mxCell id="post_field5" value="createdAt, updatedAt: Date" style="text;html=1;strokeColor=none;fillColor=none;align=left;verticalAlign=top;spacingLeft=8;whiteSpace=wrap;overflow=hidden;" parent="post1" vertex="1">
                    <mxGeometry y="130" width="220" height="26" as="geometry" />
                </mxCell>
                <!-- Liên kết Product -> CategoryProduct -->
                <mxCell id="rel_prod_catprod" style="edgeStyle=orthogonalEdgeStyle;html=1;endArrow=block;endFill=1;strokeColor=#ff9800;strokeWidth=2;" parent="1" source="prod1" target="catprod1" edge="1">
                    <mxGeometry relative="1" as="geometry" />
                </mxCell>
                <mxCell id="rel_prod_catprod_label" value="categoryProductId" style="text;html=1;strokeColor=none;fillColor=none;fontSize=12;fontStyle=1;fontFamily=Courier New;align=center;verticalAlign=middle;whiteSpace=wrap;overflow=hidden;" parent="1" vertex="1">
                    <mxGeometry x="540" y="120" width="120" height="20" as="geometry" />
                </mxCell>
                <!-- Liên kết Post -> CategoryPost -->
                <mxCell id="rel_post_catpost" style="edgeStyle=orthogonalEdgeStyle;html=1;endArrow=block;endFill=1;strokeColor=#388e3c;strokeWidth=2;" parent="1" source="post1" target="catpost1" edge="1">
                    <mxGeometry relative="1" as="geometry" />
                </mxCell>
                <mxCell id="rel_post_catpost_label" value="categoryPostId" style="text;html=1;strokeColor=none;fillColor=none;fontSize=12;fontStyle=1;fontFamily=Courier New;align=center;verticalAlign=middle;whiteSpace=wrap;overflow=hidden;" parent="1" vertex="1">
                    <mxGeometry x="940" y="180" width="120" height="20" as="geometry" />
                </mxCell>
            </root>
        </mxGraphModel>
    </diagram>
</mxfile> 